<svg xmlns="http://www.w3.org/2000/svg" width="32" height="32" viewBox="0 0 32 32">
  <g fill="none" stroke="#123f39" stroke-width="1.8" stroke-linejoin="round" stroke-linecap="round">
    <polygon points="16 3 27.3 9.5 27.3 22.5 16 29 4.7 22.5 4.7 9.5"/>
    <path d="M16 3 L16 16 M4.7 9.5 L16 16 M27.3 9.5 L16 16"/>
  </g>
  <g fill="#17524a">
    <polygon points="0.12,0.86 0.12,0.14 0.30,0.14 0.50,0.50 0.70,0.14 0.88,0.14 0.88,0.86 0.71,0.86 0.71,0.44 0.56,0.68 0.44,0.68 0.29,0.44 0.29,0.86" transform="matrix(11.3,6.5,0,13,4.7,9.5)"/>
    <polygon points="0.16,0.14 0.34,0.14 0.34,0.42 0.66,0.42 0.66,0.14 0.84,0.14 0.84,0.86 0.66,0.86 0.66,0.58 0.34,0.58 0.34,0.86 0.16,0.86" transform="matrix(11.3,-6.5,0,13,16,16)"/>
  </g>
</svg>
